<svg xmlns="http://www.w3.org/2000/svg" width="12" height="14" viewBox="0 0 12 14">
  <defs>
    <style>
      .cls-1 {
        fill: #fff;
        fill-rule: evenodd;
      }
    </style>
  </defs>
  <path id="_" data-name="✓" class="cls-1" d="M1.389,10.21q0.378,0.423.726,0.872T2.8,12.049q0.34,0.519.739,1.2a0.352,0.352,0,0,0,.232.162,1.513,1.513,0,0,0,.349.037q0.133,0,.266-0.012A1.842,1.842,0,0,0,4.63,13.4a0.828,0.828,0,0,0,.183-0.062A0.166,0.166,0,0,0,4.9,13.248Q5.493,11.455,6.2,9.828T7.693,6.719Q8.482,5.238,9.349,3.9t1.789-2.557a0.733,0.733,0,0,0,.116-0.187,0.513,0.513,0,0,0,.025-0.17A0.173,0.173,0,0,0,11.2.834,0.408,0.408,0,0,0,10.972.78,2.371,2.371,0,0,0,10.179.9a1.037,1.037,0,0,0-.519.357,37.083,37.083,0,0,0-3.1,5.055,48.336,48.336,0,0,0-2.416,5.57q-0.54-.88-1.175-1.776A12.979,12.979,0,0,0,1.551,8.433a1.705,1.705,0,0,0-.2-0.178,0.369,0.369,0,0,0-.22-0.062,1.939,1.939,0,0,0-.3.029,1.625,1.625,0,0,0-.336.091,0.951,0.951,0,0,0-.27.158,0.283,0.283,0,0,0-.112.22,0.456,0.456,0,0,0,.125.27,4.526,4.526,0,0,0,.315.344Q1.011,9.787,1.389,10.21Z"/>
</svg>
