<svg xmlns="http://www.w3.org/2000/svg" width="64" height="64" viewBox="0 0 64 64">
  <defs>
    <style>
      .cls-1 {
        fill-rule: evenodd;
      }
    </style>
  </defs>
  <path id="_" data-name="ï»" class="cls-1" d="M56.75,31.156q0,7.736-7.031,13.219A28.353,28.353,0,0,1,32.141,50,32.832,32.832,0,0,1,22.3,48.594H22.016l-0.141-.141a11.967,11.967,0,0,0-1.969-.281,6.36,6.36,0,0,0-2.25.422H17.516a4.45,4.45,0,0,0-1.547.562l-5.484,2.391a44.92,44.92,0,0,0,1.828-6.609,4.963,4.963,0,0,0-.844-2.812l-0.281-.281a0.566,0.566,0,0,1-.141-0.422,16.588,16.588,0,0,1-3.8-10.266q0-8.016,7.242-13.711A27.452,27.452,0,0,1,32,11.75a27.461,27.461,0,0,1,17.508,5.7q7.241,5.7,7.242,13.711h0ZM5,31.156A18.616,18.616,0,0,0,9.219,42.969l0.563,0.562-0.141-.141a2.954,2.954,0,0,1,.422,1.547q0,0.142-2.391,8.156A1.057,1.057,0,0,0,8.656,54.5H9.5l0.281-.141,7.031-3.094,0.563-.281a3.935,3.935,0,0,1,.844-0.281h0a5.33,5.33,0,0,1,1.687-.281,4.66,4.66,0,0,1,1.406.281h0.281A32.427,32.427,0,0,0,32.141,52.25q11.249,0,19.055-6.117T59,31.156q0-9-7.945-15.328A29.646,29.646,0,0,0,32,9.5,33.328,33.328,0,0,0,22,11s-3.759.609-9.055,4.828S5,25.158,5,31.156H5Z"/>
</svg>
