<svg xmlns="http://www.w3.org/2000/svg" width="64" height="64" viewBox="0 0 64 64">
  <defs>
    <style>
      .cls-1 {
        fill-rule: evenodd;
      }
    </style>
  </defs>
  <path id="_" data-name="" class="cls-1" d="M50,20.75q0,9.281-9.844,26.156A144.241,144.241,0,0,1,32,59.7a143.737,143.737,0,0,1-8.156-12.8Q14,30.031,14,20.75a17.392,17.392,0,0,1,5.2-12.8A17.4,17.4,0,0,1,32,2.75a17.4,17.4,0,0,1,12.8,5.2A17.4,17.4,0,0,1,50,20.75h0Zm-38.25,0q0,7.034,5.625,18.492a136.923,136.923,0,0,0,9,16.313Q29.75,60.406,32,63.5l5.063-7.172A121.047,121.047,0,0,0,47.188,38.469Q52.25,27.783,52.25,20.75A19.529,19.529,0,0,0,46.344,6.406,19.529,19.529,0,0,0,32,.5,19.529,19.529,0,0,0,17.656,6.406,19.529,19.529,0,0,0,11.75,20.75h0Zm11.25,0a8.641,8.641,0,0,0,2.672,6.328,8.83,8.83,0,0,0,12.656,0,8.83,8.83,0,0,0,0-12.656,8.83,8.83,0,0,0-12.656,0A8.649,8.649,0,0,0,23,20.75Zm2.391,0A6.486,6.486,0,0,1,32,14.141a6.486,6.486,0,0,1,6.609,6.609A6.486,6.486,0,0,1,32,27.359,6.486,6.486,0,0,1,25.391,20.75Z"/>
</svg>
