<?xml version="1.0" encoding="UTF-8"?>
<svg id="Layer_1" xmlns="http://www.w3.org/2000/svg" version="1.1" viewBox="0 0 1809 1681">
  <!-- Generator: Adobe Illustrator 29.3.1, SVG Export Plug-In . SVG Version: 2.1.0 Build 151)  -->
  <defs>
    <style>
      .st0 {
        fill: #6d071a;
      }
    </style>
  </defs>
  <path class="st0" d="M821.5,1647.2c-63.6-21.5-124.5-51.7-181.2-89.7-57-38.2-108.3-83.3-152.2-134.1-93.6-108.1-149-235.4-160.2-368-7.9-85.3,3.4-170.9,32.9-247.7,31-80.7,82.1-151.2,147.8-203.7,48.5-38.4,100.4-65.1,154.3-79.6,40.3-10.8,81-14.5,121.6-11-33.2-6.4-67.7-6.8-105.7-1.4-99.1,16.5-187.6,67.9-256,148.6-63.5,75-106.1,172.3-119.7,273.9-16.9,125.5,5.5,254.5,64.6,373.2,28.3,56.9,64.5,110.1,107.5,158.1,43.2,48.2,92.5,90.3,146.5,125l-3.4,5.3c-84.3-52.9-155.3-120.8-211.1-201.8-56.3-81.7-94.7-173.4-114.1-272.3-29.4-180.6,6.3-337.6,105.9-466.8,60.5-80.1,145.5-139.2,239.1-166.4,47.5-13.8,95.6-19,142.7-15.3,26.5,2.1,52.3,6.9,77.3,14.4-53.3-20.8-114.2-28.7-179.4-22.7-84.5,11-161.9,46.5-236.3,108.5-59.3,51-106,112.8-138.8,183.7-30.8,66.6-48.7,139.8-53.2,217.4-8,137.2,26.7,277.7,95.2,396.9,25.3,42.6,55.1,83.4,89.3,122.1l-4.7,4.2c-34.3-37.2-64.4-78.5-89.8-122.7-30.9-51.9-55-106.5-72.3-163.3-33-108.6-39.1-220.7-18.1-333.1,24-112,75.2-212.6,148.1-290.8,77.4-83.1,175.5-135.8,283.7-152.6,98.9-13.2,190.5,4.4,264.7,49.9-71.2-52.1-164-76.7-260-67.1-84.1,8.9-150.6,32.2-209.2,73.6-54.9,39.2-98,78.7-139.9,128.2-80.6,98.9-126.7,222.5-133.4,357.5-3.1,62.9,2.3,127.2,16.1,191.1,13.5,62.6,34.7,123.7,63.1,181.4l-5.6,2.8c-50.7-99.5-79.3-210.7-82.8-321.7-3.5-113.8,19.7-226.2,67.1-324.8,38-74.1,87.2-137.1,146.1-187.3,61.6-52.6,132.6-89.8,210.9-110.9,85.7-23.9,177.8-23.2,259.2,2,66,20.4,121.4,55.5,163.1,102.9-20.9-28.1-47.6-53.3-78.9-74.3-47-31.5-103.5-53.4-163.6-63.4-67.5-11.2-135.6-7.3-202.5,11.6-63.1,17.9-125.4,49.2-185.3,93.1-52.7,39.5-98.4,87.1-135.8,141.2-35.5,51.4-63.6,108.9-83.5,170.8-38,118.2-45.4,249.4-21.4,379.3l-6.2,1.1h0s0,0,0,0c-16.1-86.7-19.3-171.9-9.3-253,10.6-86.5,36.2-168.7,75.9-244.4,56.3-99.6,116.7-169.7,196-227.4,70.6-49.4,150.4-80.6,251-98.1,48.7-7.8,98.6-7.3,148.2,1.5,49.2,8.7,95.9,25,138.6,48.6,69.5,38.3,123.4,93.3,156.5,158.6-33.2-79.8-102.7-148.9-198.4-194.9-120.8-54.9-267.8-53.5-403.2,4-117.1,47.2-217.8,130.1-291.2,239.8-30.6,45.6-55.6,94.8-74.6,146.5-23.7,68.1-38,141.2-42,215.8l-6.3-.3c1.9-64.9,13.2-129.4,33.4-191.9,2.8-8.7,5.8-17.2,8.9-25.8,12.1-34.6,26.6-68,43.4-99.7,53.7-101.2,129-184.3,223.9-246.9,52.3-34.2,106.4-60.3,160.7-77.4,57.6-18.2,115.7-26.4,172.7-24.5,165.4,4.2,308.5,80.1,392.7,208.2,19.9,30.9,34.3,64.4,43.6,101-10.4-56.9-35.5-111.3-74.1-160.3-51.4-65.3-125.1-117.4-207.3-146.8-84.7-28.9-172.2-37-259.9-24.2-87.4,12.8-171,45.7-248.4,98-135.8,88.1-233.8,216.1-291.4,380.7h0s0,0,0,0l-6-2.1s0,0,0,0h0c28.3-82.9,67.3-158,116-223.2,52.1-69.7,115.8-129.1,189.6-176.3,172-108,372.1-128,549.1-54.9,44.3,18.7,85.9,44.2,123.5,75.7,38.2,32,70.4,68.6,95.9,108.9,26.7,42.2,44.9,86.8,54,132.6,5.5,27.5,7.7,55.2,6.5,82.7,4.5-34.4,3.4-70.3-3.3-106.3-10.6-56.1-34.6-111.5-69.7-160.2-79.5-108.4-197-176.3-349.1-201.6-71.6-11.9-143-3.3-209.6,7.8-91.1,16.7-177,53.8-255.2,110.2-72.3,52.1-136.7,119.6-191.4,200.6l-5.3-3.5c60.3-93.4,141.9-173.3,236.1-231.2,96.1-59.1,204.2-94.3,312.6-101.9,163.7-12,323.8,45.2,439.4,156.9,63.1,61.1,108.1,141.5,126.7,226.4,9.6,43.6,11.9,87,7,129-3,25.2-8.5,49.5-16.6,72.8,19.6-42.3,29.5-89.9,28.7-140.1-.9-65.5-19.4-132.8-53.3-194.6-26.7-53.4-63-101-108.1-141.6-43.9-39.5-94.9-71.5-151.7-95-117.6-48.7-233.1-61.4-353.2-38.8-54.7,11.7-101.5,23.5-151.5,42.7-83,37.3-150.9,80.6-213.7,136l-4.2-4.7c141.7-134.1,340.2-204.1,544.6-192,93.2,7.9,183.7,36.1,261.8,81.4,83.3,48.3,149.6,113.3,197.2,193.3,44.2,78.4,66.7,168,63.4,252.4-2.5,63-19,120.6-48.5,170.3,26.2-38.1,44.5-82.8,53.9-132.4,13.6-71.6,7.9-151.6-16-225.2-24.8-68.7-63.7-131.4-115.4-186.1-50.8-53.8-111.2-96.8-179.5-128-71.8-33-146.8-53.4-222.8-60.7-76.7-7.3-154.6-1.3-231.6,18-34.3,9.8-66.4,22.5-100.5,35.9-19.2,7.6-39,15.4-59.2,22.6l-2.4-5.8c113.4-55.7,236.6-84.2,356-82.3,62.1,1,123.1,10.1,181.2,27.2,60.6,17.8,118.5,44.2,172.1,78.6,93.7,58.6,166.3,140.3,209.9,236.4,44.6,98.4,56.2,206.7,33.4,313.1-17.4,72.7-54,136.7-105.4,185.9,38.3-31.5,70.1-71.6,93.7-118.7,33.9-67.7,48.3-147.1,40.6-223.6-7.4-96.5-44-190.4-108.7-279.4-77.4-103.2-185.3-179.5-312-220.8-119.3-38.8-250.4-45.7-379.3-19.9l-1.4-6.1c93.8-25.6,191.7-17.6,266.5-7.9,135.9,17.7,265.4,76.2,364.5,164.6,106.4,94.9,171.5,217,188.3,353.1,13.8,98.6-3.8,200-49.6,285.7-23.5,43.9-53.5,82-89.2,113.2-21.8,19-45.4,35.2-70.7,48.5,33.1-13.8,64.1-33.2,92.6-58.2,41.8-36.7,77.5-85.2,103.1-140.4,19-41.8,31.9-86,38.3-131.3,6.2-44,6.4-89.3.5-134.7-11.5-88.7-46.4-177.8-100.9-257.6-61.9-88.2-141.9-158.2-237.8-208.2-90.4-47.1-192-75-302.1-83,0,0,0,0,0,0l.4-6.3c115.9,8.1,222.6,37.5,317.3,87.2,101.7,53.4,184.8,128.3,247,222.5h0c29.9,50.7,50,90.4,65.1,128.8,18.5,46.9,29.2,92.1,32.9,137.9,6.1,83.3-4.1,165-29.4,236.4-28.1,79.1-73.7,144.9-135.6,195.5-46.1,37.5-99.7,62.9-157.3,75,53.1-6.3,105.5-26.5,154-59.6,61.2-41.7,113.3-102.6,146.7-171.4,69.1-144.8,68.2-311.8-2.7-470.1-39.5-88.2-99.4-169.8-173.2-235.9-21.5-19.3-44.1-37.1-67.6-53.4-56.3-36.8-119.3-67.2-187.8-90.6l1.9-6c66.1,19.3,130.4,50.4,189.4,91.4,12.1,7.9,23.9,16.1,35.4,24.7,71,52.6,129.9,116.4,174.9,189.6,32.9,54.1,57.8,111.5,74,170.5,15.9,57.9,24,119.3,24,182.3v.2c-4.1,85.2-25.1,166.8-60.8,235.9-39.5,76.5-95.7,137.1-167,180.2-71.6,42.3-144.9,62-215.3,58.3,41.6,5.6,85.4,2.5,129.4-9.4,62.5-16.9,123.3-50.4,175.8-96.9,71.4-63.9,120.9-144.1,147.3-238.4,24.7-88.4,27.4-187.1,7.7-285.3-18.9-92.4-56.4-178.9-111.7-257.3-52.6-74.6-119.6-139.6-199.1-193.3l3.5-5.2c56.9,37.3,108.7,81.7,153.8,132.1,45.7,51,83.8,107.1,113.1,166.6,62.4,126.8,82.5,264.7,58.3,398.9-20.1,106.5-65.7,202.2-131.9,276.6-70.8,79.6-162.4,130.6-264.7,147.3-56,8-106.3,6.3-151.6-5.4,42.3,14.7,88.1,20.7,135.8,17.6,74.7-4.8,149.6-31.3,216.4-76.5,173.5-120.1,224.5-304.8,236.6-438.5,5.7-91-8.5-183.1-42.2-273.7-32.1-86.3-82-168.9-144.2-238.9l4.6-4.3c66.5,68.5,119.3,154.3,152.7,248.1,33.1,92.7,46.9,192.2,40.1,287.8-6,84-27.4,162.8-63.5,234.2-38.5,76.2-92.6,141.6-160.9,194.3-78.7,61-175.3,96.2-272,99.2-49.5,1.5-97-5.5-141.3-20.8-25.1-8.7-48.9-19.9-71.1-33.6,34,25.2,73.3,44.2,116.1,56,63.4,17.4,131.9,18.4,197.9,2.9,67.6-15,130.2-42.8,186.2-82.5,52.8-37.5,98.8-84.9,136.7-141,73.4-108.6,111.6-242.9,107.7-378-3.8-109.3-29.2-213.5-77.7-318.7l5.7-2.7c43.4,88.8,70.7,186.2,78.8,281.5,8.7,101.3-3.4,199.1-35.8,290.5-55.4,158.3-174.1,286.9-325.5,353-88.2,37.3-193.1,46-287.8,24.1-49.2-11.4-94.1-30.5-133.3-56.7-25-16.7-47.2-36-66.5-57.7,16.4,22.6,36,43,58.4,60.9,35.3,28.1,77.2,49.7,124.5,64,88.6,26.9,191.7,26.3,283-1.5,76.8-24.4,146.5-64.8,207.1-120.1,57.1-52.2,104.4-115.9,140.7-189.4,35.2-71.3,58.3-148.3,68.6-228.8,10.5-81,7.5-161.2-8.9-238.3h0s0,0,0,0l6.2-1.3c16.5,76.7,20.2,156.3,11.1,236.6-9.1,79.7-30.5,156.3-63.5,227.7-33.9,73.4-78.8,138.2-133.3,192.6-57.6,57.4-124.4,101.4-198.5,130.9-60.4,24.8-128.9,36.9-198.1,34.8-68.7-2-136.4-17.9-195.8-45.8-48.6-22.9-90.5-53-124.6-89.7-18.1-19.4-33.7-40.4-46.8-62.9,24.1,51,59.4,94.8,105.7,130.8,68.3,51.7,150.7,83,238.3,90.5,82.9,7.1,169.4-6.8,250.2-40.2,117.2-48.4,218.1-133,291.7-244.6,35-53.1,63.1-111.2,83.5-172.6,13.5-40.8,23.5-82.5,29.8-124.6,3.1-21.2,5.4-42.6,6.7-64,0,0,0,0,0,0h0s6.3.4,6.3.4c-1.3,21.6-3.6,43.2-6.8,64.7-15,102-49.7,200.1-101.9,286.9-66.5,110.5-159,197.6-267.6,251.9-106.7,51.4-215.7,70.6-333.3,58.8-73.9-7-139.7-32.9-219.9-86.3-49.2-35.4-88.2-79.1-116.1-129.9-16.6-30.3-28.8-62.1-36.3-95.3,11.4,77.1,50.7,150,114.4,210.4,76.7,72.8,180.9,120.1,285.9,129.8,82.4,5.9,162.6-3.1,238.2-26.7,77.9-24.3,149.2-63.7,212-116.9,53.8-44.2,100.7-95.6,139.4-153,38.2-56.6,68.4-118.8,89.8-185l6,1.9c-42.9,138.6-131.1,265.6-248.3,357.6-59.5,46.7-124.1,82.5-192,106.4-71.5,25.2-145,36.6-218.2,33.7-56.2-2-107.5-11-156.9-27.5-50.8-16.9-98.3-41.3-145.2-74.5-64.1-46.6-113.6-109-143-180.3-19.6-47.6-29.6-97.5-29.8-147.4-4.6,57.2,3.9,114.2,25.4,167.9,21.6,49.9,52.1,95.4,90.6,135.2,36.8,38.1,80.1,70.3,128.9,95.8,78.6,41.1,168.3,62.7,257.6,62.7,19.4,0,38.8-1,58-3.1,104.2-11.4,206.8-47,296.6-102.9,88.9-55.4,166.3-131.3,223.8-219.5l5.3,3.4c-51.2,83.2-122.9,157.5-207.4,214.9-84.2,57.2-179.5,96.5-275.4,113.7-80.8,14.4-160.2,13.2-236-3.6-81-18-155.8-53.6-222.2-105.6-49-38.8-88.7-81.7-118.2-127.6-32-49.7-53-104.6-62.4-163.1-8-56.1-3.9-111.2,13.2-169.9-12.5,33.6-20.5,69.1-23.5,104.8-4.9,58.3,3.5,118.1,24.2,172.7,34,83.1,90.7,156.8,163.8,213.2,72.4,55.7,159.2,93.3,251.2,108.6,105.4,18.8,211.4,12,315-20.4,9-2.8,17.9-5.8,26.7-8.9,88.5-32.7,169.3-80.9,244.8-145.5l4.1,4.8c-74.8,65.6-157.5,114.9-246.4,146.6-43.9,16.2-89.6,28.7-137.5,37.5-93.6,17.3-187.9,8.9-305.8-27.4-94.1-27.5-178.3-79.2-243.3-149.6-67-72.6-110.5-162.1-125.6-258.7-16.2-97.1,2.5-192.8,51.4-271-64.5,85.4-87.8,202.8-60.9,320.5,27.9,117,94.8,219.9,193.5,297.7,93.4,73.6,210.8,119.4,330.4,129.1,69.3,4,137.5-.3,202.5-12.6,68-12.9,133.2-34.8,193.8-65.1l2.8,5.6c-109.1,56-224.5,84.3-340.1,84.3-52.7,0-105.4-5.9-157.5-17.8-170.2-38.7-308.5-139-399.9-290.1-27.2-47.7-46-99.6-55.8-154.4-9.7-54.2-10.1-108.5-1.2-161.3,15.6-93,59-173.8,124.2-232.5-23.9,17.3-45.3,37.8-64.2,61.3-28.5,35.5-50.4,77-65.1,123.5-14.2,44.7-21.2,92.1-20.9,141.1.3,48.6,7.8,96.3,22.3,141.8,35.5,112.1,104.9,210.5,200.8,284.7,92.8,71.8,204.6,116.9,323.2,130.5,51.5,7,106,12.2,163.2,7.7,30.1-3.1,59.9-8.3,89.3-15.4l1.6,6.1c-30.9,8.4-61.1,13.3-90.6,15.6-115.6,12-235-5-344-49.9-69-28.4-131.8-66.9-186.6-114.5-57-49.5-103.9-107.6-139.3-172.7-35.3-66.6-55.9-136.9-61.3-209-5.5-72.5,4.6-144.8,29.9-214.9,22.1-56.2,54.4-106.5,93.4-145.5,19.4-19.4,40.4-36.1,62.7-49.9-31.1,16.2-60.2,37.4-86.5,63.2-47.7,46.7-83.2,105.3-102.6,169.4-41.6,136.3-25.1,283.6,46.6,415,28.4,52.1,64.2,100.1,106.2,142.5,40.5,40.8,86.9,76.6,137.9,106.5,99.1,57.9,214.8,92.7,334.6,100.5l-.4,6.3c-125.1-7.9-246.1-44.9-350.1-106.8-53.6-31.9-102.1-70.2-144.1-113.7-43.8-45.4-80.5-96.5-109.2-151.9-45.9-89.7-68.6-186.4-65.7-279.5,1.5-48.5,9.9-95.9,24.9-141,15.7-47,38.7-91.7,68.3-132.9,58.4-81.2,139.2-136,228.2-156.4-34.8,4.9-68.8,15.3-101.8,31.4-51.1,24.8-97.1,61.6-136.9,109.3-75.8,99.7-112.3,209.3-108.6,325.7,4.2,95.9,26.4,184.8,66,264,40.9,81.8,99.5,154.5,174.3,216,68.9,56.7,150.2,103,241.5,137.5l-2.1,5.9ZM630,662.1l3.2,5.4c-87.6,58.4-146,151.3-164.5,261.7-8.7,52.1-8.3,105.7,1.2,159.2,9.6,54.1,28.1,105.3,55,152.3,70.2,116,168.4,201.8,287.5,252.4-46.1-20.6-89.5-46.7-128.8-77.6-99.8-78.6-167.5-182.8-195.7-301.2-32.8-143.5,7.9-286.7,106.3-373.7l4.4,4.5c-76.2,83.8-108.6,199.4-89,317.3,15,95.4,57.9,183.7,124.1,255.4,60.2,65.3,137.1,114.3,223.2,142.5-50.6-19.5-98.1-46.1-140.7-78.9-74-57-131.4-131.7-165.8-215.9-21.1-55.6-29.6-116.3-24.6-175.6,4.9-58.4,22.9-116.1,52.1-166.6l5.6,2.8c-34.4,81.7-45.5,154.3-34.9,228.5,9.3,57.6,30,111.7,61.5,160.7,29.1,45.3,68.4,87.7,116.8,126,65.6,51.5,139.5,86.6,219.6,104.4,74.9,16.7,153.5,17.8,233.5,3.5,57.7-10.3,115.1-28.7,170-54.2-67.2,29.8-138.8,49.3-211.2,57.2-19.5,2.1-39.1,3.1-58.7,3.1-90.4,0-181.1-21.9-260.6-63.4-49.4-25.8-93.2-58.4-130.5-97-39-40.4-69.9-86.5-91.9-137.2-31.6-78.9-35.6-164.6-11.8-247.9l6.1,1.5c-15.1,73.5-7.6,150,21.8,221,29,70.3,77.7,131.7,140.9,177.6,46.4,32.9,93.3,57,143.5,73.7,48.9,16.3,99.6,25.2,155.2,27.2,72,2.8,144.1-8.2,214.4-32.8-.5.2-1,.3-1.5.5-76.4,23.8-157.3,32.9-240.6,27-106.4-9.9-212-57.8-289.7-131.6-84-79.8-126.3-181.1-119-285.4h6.3c1.9,57.6,16.9,112.3,44.5,162.6,27.4,49.9,65.8,92.9,114.2,127.7,79.2,52.8,144.1,78.3,216.9,85.3,116.5,11.6,224.4-7.4,330-58.2,57.5-28.7,110.4-66.8,157.4-112.8-57,54.1-122.4,96.8-193.8,126.3-81.7,33.9-169.2,47.9-253.1,40.7-88.8-7.7-172.3-39.4-241.6-91.8-68.5-53.3-113.6-123.5-133.8-208.6l6.1-1.7c15.5,49.8,41.5,94.5,77.3,133,33.5,36,74.8,65.7,122.7,88.2,58.7,27.6,125.5,43.2,193.3,45.2,68.3,2,135.9-9.9,195.5-34.3,73.4-29.2,139.4-72.7,196.4-129.5,13.9-13.9,27.2-28.5,39.9-43.7-16.3,19.1-33.7,37-52,53.8-61.3,56-131.7,96.9-209.5,121.5-92.5,28.1-196.9,28.7-286.7,1.5-48.1-14.6-90.7-36.5-126.6-65.1-38.8-30.9-69.1-69.2-89.9-113.6l5.5-3c25.2,41,58.8,75.7,99.9,103.2,38.6,25.8,82.8,44.6,131.2,55.8,93.4,21.7,196.8,13,283.8-23.7,141.9-61.8,254.7-179.3,312.8-324.5-15.9,38.1-35.4,74.4-58.3,108.3-38.3,56.7-84.9,104.7-138.3,142.7-56.6,40.2-120,68.3-188.4,83.5-67,15.8-136.5,14.7-201-3-66.9-18.4-125.2-54.1-168.8-103.4l4.5-4.4c35.6,32.8,77,57.5,123,73.3,43.6,15,90.4,21.9,139.1,20.4,95.4-2.9,190.7-37.7,268.3-97.9,67.5-52.1,121-116.8,159.1-192.1,35.7-70.7,56.8-148.7,62.8-231.9.1-1.5.2-2.9.3-4.4-14.5,133.9-68.3,312.1-238,429.6-67.8,45.9-143.8,72.7-219.6,77.6-8.2.5-16.4.8-24.5.8-70.8,0-137-20.2-192.6-58.9l3.4-5.3c63.5,38.8,138.1,51.4,228.1,38.6,100.8-16.5,191.1-66.7,261-145.3,65.5-73.6,110.6-168.2,130.4-273.5,19.4-107.4,10-217.2-26.9-321.7,8.7,26,15.8,52.6,21.3,79.7,19.8,99.2,17.1,198.9-7.9,288.2-26.7,95.5-76.9,176.8-149.2,241.4-53.2,47.1-114.9,81.1-178.3,98.2-69.6,18.8-138.5,16.1-199.5-7.9l2-6c88.7,24.8,185,8.8,278.5-46.5,70.2-42.5,125.6-102.3,164.6-177.7,35.3-68.3,56.1-148.9,60.1-233.2,0-62.4-8-123.1-23.8-180.5-16.1-58.5-40.7-115.3-73.3-168.9-11.3-18.4-23.5-36.2-36.6-53.3,29.5,40.1,54.7,83.1,74.6,127.7,71.6,160,72.5,328.9,2.6,475.4-33.9,69.8-86.7,131.5-148.8,173.9-67.6,46.1-142.7,67.6-217.1,62v-6.3c78.7-3.9,152.3-32,212.8-81.2,60.9-49.9,105.9-114.7,133.6-192.7,25.1-70.5,35.1-151.4,29.1-233.8-8.1-101.2-51.4-186.6-97.1-263.9-21.9-33.1-46.3-63.8-73.3-92,21.2,22.7,40.9,47,59,72.9,55.1,80.7,90.4,170.7,102,260.4,6,45.9,5.8,91.8-.5,136.4-6.5,46-19.5,90.7-38.8,133.1-26,56-62.2,105.3-104.7,142.5-45.9,40.2-98,66.4-155.1,77.8l-1.6-6.1c46.8-15,89.4-39,126.5-71.4,35.1-30.7,64.6-68.1,87.7-111.4,45.2-84.5,62.5-184.6,48.9-281.9-16.6-134.6-81-255.3-186.2-349.2-15.8-14.1-32.5-27.5-49.8-40,45.6,34.8,86.1,75.5,120.7,121.6,65.4,89.9,102.4,185,109.9,282.6,7.8,77.6-6.9,158.2-41.3,227-36,72.1-91.2,128.2-159.4,162.3l-3.1-5.5c81.6-50.5,139.2-131.5,162.5-228.2,22.5-105,11.1-211.9-33-309.1-43.1-94.9-114.8-175.8-207.5-233.7-53.1-34.1-110.4-60.3-170.5-77.9-13.3-3.9-26.8-7.4-40.4-10.5,42.1,10.6,83.6,25.2,124.1,43.8,69,31.5,130,75.1,181.4,129.4,52.3,55.3,91.6,118.7,116.7,188.4,24.2,74.7,30,155.8,16.2,228.4-15.3,80.5-53.6,148.4-110.8,196.4l-4.3-4.6c59.9-59.9,93.5-139.8,97.1-231,3.3-83.2-18.9-171.7-62.5-249-47-78.9-112.6-143.2-194.9-191-50.5-29.3-106.3-51.4-164.7-65.3,28.8,7.7,57.6,17.5,86.5,29.4,57.5,23.8,109.1,56.1,153.5,96.2,45.6,41.1,82.5,89.4,109.5,143.3,34.3,62.6,53,130.9,54,197.4,1,71.7-19.1,138.1-58.1,192.1l-5.3-3.4c40.5-73.6,51.5-159.7,31.9-249-18.4-83.7-62.8-163-124.9-223.2-114.3-110.5-272.7-167-434.5-155.2-23.4,1.6-46.8,4.6-70.1,8.8,59-8.7,121.1-13.7,183.5-3.3,73.3,12.2,139.6,34.7,197.1,66.7,62.1,34.6,114.6,80.8,156.1,137.4,35.6,49.4,60.1,105.7,70.8,162.7,11.2,59.4,7.1,118.9-11.8,171.8l-6-1.8c11.2-47.5,12-96,2.4-144.1-9-45-26.9-88.9-53.2-130.5-25.1-39.7-57-75.9-94.6-107.4-37.2-31.1-78.2-56.3-121.9-74.7-175.1-72.3-373.1-52.5-543.3,54.4-9.3,6-18.5,12.2-27.5,18.6,4.1-2.8,8.3-5.5,12.5-8.3,78.2-52.8,162.6-86.1,251-99,88.7-13,177.1-4.7,262.9,24.5,83.4,29.8,158,82.6,210.2,148.8,56.5,71.7,84.4,154.8,80.7,240.6h-6.3c-4.2-66.9-21.9-123.9-54.1-174-83-126.3-224.3-201.1-387.6-205.3-56.4-1.9-113.8,6.3-170.6,24.2-53.8,17-107.3,42.8-159.2,76.7-25.4,16.8-49.4,35-71.9,54.7,51.2-43.4,108.6-78.2,170.5-103.2,65.4-27.7,135.9-43.2,204-44.6,72.6-1.5,141.4,12.2,204.2,40.8,122.5,59,202.8,155.1,220.3,263.8l-6.1,1.4c-25.5-91-88.7-168.3-178-217.5-42.1-23.2-88.1-39.4-136.7-47.9-49-8.6-98.2-9.1-146.1-1.5-101,17.6-177.6,47.5-248.4,97-36.2,26.3-68.4,55.3-98.1,88.5,23.1-24,48.1-46.2,74.9-66.3,60.5-44.4,123.5-76.1,187.3-94.1,67.8-19.2,136.8-23.2,205.2-11.8,60.9,10.2,118.4,32.4,166.1,64.4,51.8,34.7,91,80.6,113.3,132.6l-5.6,2.8c-41.9-72.9-110.1-125.7-197.2-152.7-80.3-24.9-171.1-25.5-255.7-1.9-77.4,20.8-147.6,57.6-208.5,109.6-58.3,49.7-106.9,112.1-144.6,185.3-9.9,20.6-18.7,41.8-26.5,63.4,22.4-56.8,53-109.5,91.4-156.6,42.3-49.9,85.8-89.8,141.1-129.3,59.5-42,126.9-65.7,212.2-74.7,124.4-12.4,243.6,31.7,318.7,118.1l-4.6,4.3c-80.1-76.4-192.8-109.4-317.3-92.8-106.7,16.6-203.6,68.7-280,150.7-72.1,77.4-122.8,176.9-146.5,287.7-1,5.6-2,11.2-2.9,16.7,9-49.8,23.9-97.4,44.6-142.1,33.2-71.8,80.4-134.3,140.5-185.9,75.4-62.8,153.7-98.8,239.6-110,92.9-8.5,177.3,10.6,244,55.1l-3.2,5.4c-43.2-22.5-89.8-35.9-138.6-39.7-46.4-3.6-93.7,1.4-140.5,15.1-92.4,26.9-176.1,85.2-235.9,164.2-98.6,127.8-133.8,283.2-104.7,461.9,2.1,10.8,4.5,21.6,7.1,32.2-15.9-72.5-19.2-146.6-9.4-219.4,13.8-102.8,56.9-201.3,121.2-277.2,69.4-81.9,159.2-134,259.9-150.8,57.3-8.2,108.8-3,157.7,15.8l-1.8,6c-56.1-13.1-113.1-12.1-169.2,2.9-53.1,14.2-104.2,40.6-152,78.4-64.8,51.9-115.2,121.4-145.8,201-29.1,75.8-40.3,160.5-32.5,244.9,5,59.2,18.9,117.4,41.2,173.2-23.2-63.3-36.5-131.6-39.7-204-3.8-117.9,33.2-228.8,109.9-329.8h0c40.4-48.6,87.2-85.9,139.1-111.1,54.9-26.7,112.7-38.3,171.8-34.4v6.3c-112.8,3.8-218.6,63-290.3,162.6-29.3,40.7-52,84.8-67.5,131.2-14.8,44.5-23.1,91.3-24.6,139.2-2.8,92.1,19.6,187.7,65,276.4,15.7,30.3,33.8,59.4,54.3,86.9-14.7-20.7-28.2-42.2-40.3-64.4-72.5-132.9-89.2-282-47.1-419.9,19.7-65.1,55.8-124.6,104.2-172,50.2-49.2,110.8-82.2,175.2-95.4l1.5,6.1c-54,14.9-102.4,43.5-143.9,85-38.4,38.4-70.2,88-92,143.3-25,69.2-34.9,140.6-29.5,212.2,5.4,71.2,25.8,140.7,60.6,206.5,35,64.4,81.4,121.9,137.8,170.9,4.3,3.7,8.6,7.4,12.9,10.9-85-72.5-147-165-180-269.1-14.7-46.1-22.3-94.5-22.6-143.7-.3-49.6,6.8-97.7,21.2-143,15-47.2,37.2-89.4,66.2-125.5,30.9-38.5,68.7-69.1,112.4-90.9Z"/>
</svg>