<?xml version="1.0" encoding="UTF-8"?>
<svg id="Vrstva_1" xmlns="http://www.w3.org/2000/svg" version="1.1" viewBox="0 0 248 248">
  <!-- Generator: Adobe Illustrator 29.3.1, SVG Export Plug-In . SVG Version: 2.1.0 Build 151)  -->
  <defs>
    <style>
      .st0 {
        fill: #6d071a;
      }
    </style>
  </defs>
  <path class="st0" d="M112.8,232.9c-8.6-2.9-16.8-7-24.5-12.1-7.7-5.2-14.6-11.2-20.5-18.1-12.6-14.6-20.1-31.8-21.6-49.7-1.1-11.5.5-23.1,4.4-33.4,4.2-10.9,11.1-20.4,19.9-27.5,6.5-5.2,13.5-8.8,20.8-10.7,5.4-1.5,10.9-2,16.4-1.5-4.5-.9-9.1-.9-14.3-.2-13.4,2.2-25.3,9.2-34.6,20.1-8.6,10.1-14.3,23.3-16.2,37-2.3,16.9.7,34.4,8.7,50.4,3.8,7.7,8.7,14.9,14.5,21.3,5.8,6.5,12.5,12.2,19.8,16.9l-.5.7c-11.4-7.1-21-16.3-28.5-27.2-7.6-11-12.8-23.4-15.4-36.8-4-24.4.8-45.6,14.3-63,8.2-10.8,19.6-18.8,32.3-22.5,6.4-1.9,12.9-2.6,19.3-2.1,3.6.3,7.1.9,10.4,1.9-7.2-2.8-15.4-3.9-24.2-3.1-11.4,1.5-21.8,6.3-31.9,14.6-8,6.9-14.3,15.2-18.7,24.8-4.2,9-6.6,18.9-7.2,29.3-1.1,18.5,3.6,37.5,12.9,53.6,3.4,5.8,7.4,11.3,12.1,16.5l-.6.6c-4.6-5-8.7-10.6-12.1-16.6-4.2-7-7.4-14.4-9.8-22-4.5-14.7-5.3-29.8-2.4-45,3.2-15.1,10.1-28.7,20-39.2,10.4-11.2,23.7-18.3,38.3-20.6,13.4-1.8,25.7.6,35.7,6.7-9.6-7-22.1-10.4-35.1-9.1-11.4,1.2-20.3,4.4-28.2,9.9-7.4,5.3-13.2,10.6-18.9,17.3-10.9,13.3-17.1,30-18,48.3-.4,8.5.3,17.2,2.2,25.8,1.8,8.5,4.7,16.7,8.5,24.5l-.8.4c-6.8-13.4-10.7-28.4-11.2-43.4-.5-15.4,2.7-30.5,9.1-43.8,5.1-10,11.8-18.5,19.7-25.3,8.3-7.1,17.9-12.1,28.5-15,11.6-3.2,24-3.1,35,.3,8.9,2.8,16.4,7.5,22,13.9-2.8-3.8-6.4-7.2-10.7-10-6.3-4.2-14-7.2-22.1-8.6-9.1-1.5-18.3-1-27.3,1.6-8.5,2.4-16.9,6.6-25,12.6-7.1,5.3-13.3,11.8-18.3,19.1-4.8,6.9-8.6,14.7-11.3,23-5.1,16-6.1,33.7-2.9,51.2l-.8.2h0s0,0,0,0c-2.2-11.7-2.6-23.2-1.3-34.2,1.4-11.7,4.9-22.8,10.2-33,7.6-13.4,15.8-22.9,26.5-30.7,9.5-6.7,20.3-10.9,33.9-13.2,6.6-1.1,13.3-1,20,.2,6.6,1.2,12.9,3.4,18.7,6.6,9.4,5.2,16.7,12.6,21.1,21.4-4.5-10.8-13.9-20.1-26.8-26.3-16.3-7.4-36.1-7.2-54.4.5-15.8,6.4-29.4,17.6-39.3,32.4-4.1,6.2-7.5,12.8-10.1,19.8-3.2,9.2-5.1,19.1-5.7,29.1h-.8c.3-8.8,1.8-17.5,4.5-25.9.4-1.2.8-2.3,1.2-3.5,1.6-4.7,3.6-9.2,5.9-13.5,7.2-13.7,17.4-24.9,30.2-33.3,7.1-4.6,14.4-8.1,21.7-10.5,7.8-2.5,15.6-3.6,23.3-3.3,22.3.6,41.6,10.8,53,28.1,2.7,4.2,4.6,8.7,5.9,13.6-1.4-7.7-4.8-15-10-21.6-6.9-8.8-16.9-15.8-28-19.8-11.4-3.9-23.2-5-35.1-3.3-11.8,1.7-23.1,6.2-33.5,13.2-18.3,11.9-31.6,29.2-39.3,51.4h0s0,0,0,0l-.8-.3s0,0,0,0h0c3.8-11.2,9.1-21.3,15.7-30.1,7-9.4,15.6-17.4,25.6-23.8,23.2-14.6,50.2-17.3,74.1-7.4,6,2.5,11.6,6,16.7,10.2,5.2,4.3,9.5,9.3,12.9,14.7,3.6,5.7,6.1,11.7,7.3,17.9.7,3.7,1,7.5.9,11.2.6-4.6.5-9.5-.4-14.3-1.4-7.6-4.7-15-9.4-21.6-10.7-14.6-26.6-23.8-47.1-27.2-9.7-1.6-19.3-.4-28.3,1.1-12.3,2.3-23.9,7.3-34.4,14.9-9.8,7-18.5,16.1-25.8,27.1l-.7-.5c8.1-12.6,19.2-23.4,31.9-31.2,13-8,27.6-12.7,42.2-13.8,22.1-1.6,43.7,6.1,59.3,21.2,8.5,8.2,14.6,19.1,17.1,30.6,1.3,5.9,1.6,11.7.9,17.4-.4,3.4-1.1,6.7-2.2,9.8,2.6-5.7,4-12.1,3.9-18.9-.1-8.8-2.6-17.9-7.2-26.3-3.6-7.2-8.5-13.6-14.6-19.1-5.9-5.3-12.8-9.7-20.5-12.8-15.9-6.6-31.5-8.3-47.7-5.2-7.4,1.6-13.7,3.2-20.5,5.8-11.2,5-20.4,10.9-28.8,18.4l-.6-.6c19.1-18.1,45.9-27.5,73.5-25.9,12.6,1.1,24.8,4.9,35.3,11,11.2,6.5,20.2,15.3,26.6,26.1,6,10.6,9,22.7,8.6,34.1-.3,8.5-2.6,16.3-6.5,23,3.5-5.1,6-11.2,7.3-17.9,1.8-9.7,1.1-20.5-2.2-30.4-3.4-9.3-8.6-17.7-15.6-25.1-6.9-7.3-15-13.1-24.2-17.3-9.7-4.5-19.8-7.2-30.1-8.2-10.3-1-20.9-.2-31.3,2.4-4.6,1.3-9,3-13.6,4.8-2.6,1-5.3,2.1-8,3l-.3-.8c15.3-7.5,31.9-11.4,48-11.1,8.4.1,16.6,1.4,24.5,3.7,8.2,2.4,16,6,23.2,10.6,12.6,7.9,22.4,18.9,28.3,31.9,6,13.3,7.6,27.9,4.5,42.3-2.4,9.8-7.3,18.4-14.2,25.1,5.2-4.2,9.5-9.7,12.6-16,4.6-9.1,6.5-19.9,5.5-30.2-1-13-5.9-25.7-14.7-37.7-10.4-13.9-25-24.2-42.1-29.8-16.1-5.2-33.8-6.2-51.2-2.7l-.2-.8c12.7-3.5,25.9-2.4,36-1.1,18.3,2.4,35.8,10.3,49.2,22.2,14.4,12.8,23.2,29.3,25.4,47.7,1.9,13.3-.5,27-6.7,38.6-3.2,5.9-7.2,11.1-12,15.3-2.9,2.6-6.1,4.8-9.5,6.5,4.5-1.9,8.6-4.5,12.5-7.9,5.6-4.9,10.5-11.5,13.9-18.9,2.6-5.6,4.3-11.6,5.2-17.7.8-5.9.9-12.1,0-18.2-1.6-12-6.3-24-13.6-34.8-8.4-11.9-19.2-21.4-32.1-28.1-12.2-6.4-25.9-10.1-40.8-11.2,0,0,0,0,0,0v-.8c15.7,1.1,30.1,5.1,42.9,11.8,13.7,7.2,24.9,17.3,33.3,30h0c4,6.8,6.7,12.2,8.8,17.4,2.5,6.3,3.9,12.4,4.4,18.6.8,11.2-.6,22.3-4,31.9-3.8,10.7-9.9,19.6-18.3,26.4-6.2,5.1-13.5,8.5-21.2,10.1,7.2-.9,14.2-3.6,20.8-8,8.3-5.6,15.3-13.9,19.8-23.1,9.3-19.5,9.2-42.1-.4-63.4-5.3-11.9-13.4-22.9-23.4-31.8-2.9-2.6-6-5-9.1-7.2-7.6-5-16.1-9.1-25.4-12.2l.3-.8c8.9,2.6,17.6,6.8,25.6,12.3,1.6,1.1,3.2,2.2,4.8,3.3,9.6,7.1,17.5,15.7,23.6,25.6,4.4,7.3,7.8,15.1,10,23,2.2,7.8,3.2,16.1,3.2,24.6h0c-.5,11.5-3.4,22.5-8.2,31.9-5.3,10.3-12.9,18.5-22.5,24.3-9.7,5.7-19.6,8.4-29.1,7.9,5.6.8,11.5.3,17.5-1.3,8.4-2.3,16.6-6.8,23.7-13.1,9.6-8.6,16.3-19.4,19.9-32.2,3.3-11.9,3.7-25.2,1-38.5-2.5-12.5-7.6-24.2-15.1-34.7-7.1-10.1-16.1-18.8-26.9-26.1l.5-.7c7.7,5,14.7,11,20.8,17.8,6.2,6.9,11.3,14.5,15.3,22.5,8.4,17.1,11.1,35.7,7.9,53.8-2.7,14.4-8.9,27.3-17.8,37.3-9.6,10.7-21.9,17.6-35.7,19.9-7.6,1.1-14.3.8-20.5-.7,5.7,2,11.9,2.8,18.3,2.4,10.1-.7,20.2-4.2,29.2-10.3,23.4-16.2,30.3-41.1,31.9-59.2.8-12.3-1.2-24.7-5.7-36.9-4.3-11.6-11.1-22.8-19.5-32.2l.6-.6c9,9.3,16.1,20.8,20.6,33.5,4.5,12.5,6.3,25.9,5.4,38.8-.8,11.3-3.7,22-8.6,31.6-5.2,10.3-12.5,19.1-21.7,26.2-10.6,8.2-23.7,13-36.7,13.4-6.7.2-13.1-.7-19.1-2.8-3.4-1.2-6.6-2.7-9.6-4.5,4.6,3.4,9.9,6,15.7,7.6,8.6,2.4,17.8,2.5,26.7.4,9.1-2,17.6-5.8,25.1-11.1,7.1-5.1,13.3-11.5,18.5-19,9.9-14.7,15.1-32.8,14.5-51-.5-14.7-3.9-28.8-10.5-43l.8-.4c5.9,12,9.5,25.1,10.6,38,1.2,13.7-.5,26.9-4.8,39.2-7.5,21.4-23.5,38.7-43.9,47.6-11.9,5-26.1,6.2-38.8,3.2-6.6-1.5-12.7-4.1-18-7.7-3.4-2.3-6.4-4.9-9-7.8,2.2,3.1,4.9,5.8,7.9,8.2,4.8,3.8,10.4,6.7,16.8,8.6,12,3.6,25.9,3.6,38.2-.2,10.4-3.3,19.8-8.7,28-16.2,7.7-7,14.1-15.6,19-25.6,4.7-9.6,7.9-20,9.3-30.9,1.4-10.9,1-21.8-1.2-32.2h0s0,0,0,0l.8-.2c2.2,10.4,2.7,21.1,1.5,31.9-1.2,10.8-4.1,21.1-8.6,30.7-4.6,9.9-10.6,18.7-18,26-7.8,7.7-16.8,13.7-26.8,17.7-8.2,3.3-17.4,5-26.7,4.7-9.3-.3-18.4-2.4-26.4-6.2-6.6-3.1-12.2-7.2-16.8-12.1-2.4-2.6-4.5-5.5-6.3-8.5,3.2,6.9,8,12.8,14.3,17.7,9.2,7,20.3,11.2,32.2,12.2,11.2,1,22.9-.9,33.8-5.4,15.8-6.5,29.4-17.9,39.4-33,4.7-7.2,8.5-15,11.3-23.3,1.8-5.5,3.2-11.1,4-16.8.4-2.9.7-5.7.9-8.6,0,0,0,0,0,0h0s.8,0,.8,0c-.2,2.9-.5,5.8-.9,8.7-2,13.8-6.7,27-13.8,38.7-9,14.9-21.5,26.7-36.1,34-14.4,6.9-29.1,9.5-45,7.9-10-1-18.9-4.4-29.7-11.7-6.6-4.8-11.9-10.7-15.7-17.5-2.2-4.1-3.9-8.4-4.9-12.9,1.5,10.4,6.8,20.2,15.4,28.4,10.3,9.8,24.4,16.2,38.6,17.5,11.1.8,21.9-.4,32.2-3.6,10.5-3.3,20.1-8.6,28.6-15.8,7.3-6,13.6-12.9,18.8-20.6,5.2-7.6,9.2-16,12.1-25l.8.3c-5.8,18.7-17.7,35.8-33.5,48.3-8,6.3-16.7,11.1-25.9,14.4-9.7,3.4-19.6,4.9-29.5,4.5-7.6-.3-14.5-1.5-21.2-3.7-6.9-2.3-13.3-5.6-19.6-10.1-8.7-6.3-15.3-14.7-19.3-24.3-2.6-6.4-4-13.2-4-19.9-.6,7.7.5,15.4,3.4,22.7,2.9,6.7,7,12.9,12.2,18.3,5,5.1,10.8,9.5,17.4,12.9,10.6,5.5,22.7,8.5,34.8,8.5,2.6,0,5.2-.1,7.8-.4,14.1-1.5,27.9-6.3,40-13.9,12-7.5,22.4-17.7,30.2-29.6l.7.5c-6.9,11.2-16.6,21.3-28,29-11.4,7.7-24.2,13-37.2,15.3-10.9,2-21.6,1.8-31.9-.5-10.9-2.4-21-7.2-30-14.3-6.6-5.2-12-11-16-17.2-4.3-6.7-7.1-14.1-8.4-22-1.1-7.6-.5-15,1.8-22.9-1.7,4.5-2.8,9.3-3.2,14.1-.7,7.9.5,15.9,3.3,23.3,4.6,11.2,12.2,21.2,22.1,28.8,9.8,7.5,21.5,12.6,33.9,14.7,14.2,2.5,28.5,1.6,42.5-2.8,1.2-.4,2.4-.8,3.6-1.2,11.9-4.4,22.9-10.9,33-19.6l.6.6c-10.1,8.9-21.3,15.5-33.3,19.8-5.9,2.2-12.1,3.9-18.6,5.1-12.6,2.3-25.4,1.2-41.3-3.7-12.7-3.7-24.1-10.7-32.8-20.2-9-9.8-14.9-21.9-17-34.9-2.2-13.1.3-26,6.9-36.6-8.7,11.5-11.8,27.4-8.2,43.3,3.8,15.8,12.8,29.7,26.1,40.2,12.6,9.9,28.4,16.1,44.6,17.4,9.4.5,18.6,0,27.3-1.7,9.2-1.7,18-4.7,26.2-8.8l.4.8c-14.7,7.6-30.3,11.4-45.9,11.4-7.1,0-14.2-.8-21.3-2.4-23-5.2-41.6-18.8-54-39.2-3.7-6.4-6.2-13.4-7.5-20.8-1.3-7.3-1.4-14.6-.2-21.8,2.1-12.5,8-23.5,16.8-31.4-3.2,2.3-6.1,5.1-8.7,8.3-3.8,4.8-6.8,10.4-8.8,16.7-1.9,6-2.9,12.4-2.8,19,0,6.6,1.1,13,3,19.1,4.8,15.1,14.2,28.4,27.1,38.4,12.5,9.7,27.6,15.8,43.6,17.6,7,.9,14.3,1.6,22,1,4.1-.4,8.1-1.1,12-2.1l.2.8c-4.2,1.1-8.3,1.8-12.2,2.1-15.6,1.6-31.7-.7-46.4-6.7-9.3-3.8-17.8-9-25.2-15.5-7.7-6.7-14-14.5-18.8-23.3-4.8-9-7.5-18.5-8.3-28.2-.7-9.8.6-19.5,4-29,3-7.6,7.3-14.4,12.6-19.6,2.6-2.6,5.4-4.9,8.5-6.7-4.2,2.2-8.1,5.1-11.7,8.5-6.4,6.3-11.2,14.2-13.8,22.9-5.6,18.4-3.4,38.3,6.3,56,3.8,7,8.7,13.5,14.3,19.2,5.5,5.5,11.7,10.3,18.6,14.4,13.4,7.8,29,12.5,45.2,13.6v.8c-16.9-1.1-33.3-6.1-47.3-14.4-7.2-4.3-13.8-9.5-19.4-15.3-5.9-6.1-10.9-13-14.7-20.5-6.2-12.1-9.3-25.2-8.9-37.7.2-6.5,1.3-12.9,3.4-19,2.1-6.3,5.2-12.4,9.2-17.9,7.9-11,18.8-18.4,30.8-21.1-4.7.7-9.3,2.1-13.7,4.2-6.9,3.3-13.1,8.3-18.5,14.8-10.2,13.5-15.2,28.2-14.7,44,.6,12.9,3.6,24.9,8.9,35.6,5.5,11,13.4,20.9,23.5,29.2,9.3,7.7,20.3,13.9,32.6,18.6l-.3.8ZM86.9,99.9l.4.7c-11.8,7.9-19.7,20.4-22.2,35.3-1.2,7-1.1,14.3.2,21.5,1.3,7.3,3.8,14.2,7.4,20.6,9.5,15.7,22.7,27.2,38.8,34.1-6.2-2.8-12.1-6.3-17.4-10.5-13.5-10.6-22.6-24.7-26.4-40.6-4.4-19.4,1.1-38.7,14.3-50.4l.6.6c-10.3,11.3-14.7,26.9-12,42.8,2,12.9,7.8,24.8,16.7,34.5,8.1,8.8,18.5,15.4,30.1,19.2-6.8-2.6-13.2-6.2-19-10.6-10-7.7-17.7-17.8-22.4-29.1-2.8-7.5-4-15.7-3.3-23.7.7-7.9,3.1-15.7,7-22.5l.8.4c-4.6,11-6.1,20.8-4.7,30.8,1.3,7.8,4,15.1,8.3,21.7,3.9,6.1,9.2,11.8,15.8,17,8.9,7,18.8,11.7,29.6,14.1,10.1,2.2,20.7,2.4,31.5.5,7.8-1.4,15.5-3.9,22.9-7.3-9.1,4-18.7,6.7-28.5,7.7-2.6.3-5.3.4-7.9.4-12.2,0-24.4-3-35.2-8.6-6.7-3.5-12.6-7.9-17.6-13.1-5.3-5.4-9.4-11.7-12.4-18.5-4.3-10.6-4.8-22.2-1.6-33.5l.8.2c-2,9.9-1,20.2,2.9,29.8,3.9,9.5,10.5,17.8,19,24,6.3,4.4,12.6,7.7,19.4,9.9,6.6,2.2,13.4,3.4,20.9,3.7,9.7.4,19.5-1.1,28.9-4.4,0,0-.1,0-.2,0-10.3,3.2-21.2,4.4-32.5,3.6-14.4-1.3-28.6-7.8-39.1-17.8-11.3-10.8-17-24.4-16.1-38.5h.8c.3,7.8,2.3,15.2,6,21.9,3.7,6.7,8.9,12.5,15.4,17.2,10.7,7.1,19.5,10.6,29.3,11.5,15.7,1.6,30.3-1,44.5-7.9,7.8-3.9,14.9-9,21.2-15.2-7.7,7.3-16.5,13.1-26.2,17-11,4.6-22.8,6.5-34.2,5.5-12-1-23.3-5.3-32.6-12.4-9.3-7.2-15.3-16.7-18.1-28.1l.8-.2c2.1,6.7,5.6,12.8,10.4,17.9,4.5,4.9,10.1,8.9,16.6,11.9,7.9,3.7,16.9,5.8,26.1,6.1,9.2.3,18.3-1.3,26.4-4.6,9.9-3.9,18.8-9.8,26.5-17.5,1.9-1.9,3.7-3.8,5.4-5.9-2.2,2.6-4.5,5-7,7.3-8.3,7.6-17.8,13.1-28.3,16.4-12.5,3.8-26.6,3.9-38.7.2-6.5-2-12.2-4.9-17.1-8.8-5.2-4.2-9.3-9.3-12.1-15.3l.7-.4c3.4,5.5,7.9,10.2,13.5,13.9,5.2,3.5,11.2,6,17.7,7.5,12.6,2.9,26.6,1.8,38.3-3.2,19.1-8.3,34.4-24.2,42.2-43.8-2.1,5.1-4.8,10-7.9,14.6-5.2,7.7-11.5,14.1-18.7,19.3-7.6,5.4-16.2,9.2-25.4,11.3-9,2.1-18.4,2-27.1-.4-9-2.5-16.9-7.3-22.8-14l.6-.6c4.8,4.4,10.4,7.8,16.6,9.9,5.9,2,12.2,3,18.8,2.8,12.9-.4,25.7-5.1,36.2-13.2,9.1-7,16.3-15.8,21.5-25.9,4.8-9.5,7.7-20.1,8.5-31.3,0-.2,0-.4,0-.6-2,18.1-9.2,42.1-32.1,58-9.2,6.2-19.4,9.8-29.6,10.5-1.1,0-2.2.1-3.3.1-9.6,0-18.5-2.7-26-7.9l.5-.7c8.6,5.2,18.6,6.9,30.8,5.2,13.6-2.2,25.8-9,35.2-19.6,8.8-9.9,14.9-22.7,17.6-36.9,2.6-14.5,1.4-29.3-3.6-43.4,1.2,3.5,2.1,7.1,2.9,10.8,2.7,13.4,2.3,26.8-1.1,38.9-3.6,12.9-10.4,23.9-20.1,32.6-7.2,6.4-15.5,10.9-24.1,13.3-9.4,2.5-18.7,2.2-26.9-1.1l.3-.8c12,3.4,25,1.2,37.6-6.3,9.5-5.7,17-13.8,22.2-24,4.8-9.2,7.6-20.1,8.1-31.5,0-8.4-1.1-16.6-3.2-24.4-2.2-7.9-5.5-15.6-9.9-22.8-1.5-2.5-3.2-4.9-4.9-7.2,4,5.4,7.4,11.2,10.1,17.2,9.7,21.6,9.8,44.4.3,64.2-4.6,9.4-11.7,17.8-20.1,23.5-9.1,6.2-19.3,9.1-29.3,8.4v-.8c10.6-.5,20.6-4.3,28.7-11,8.2-6.7,14.3-15.5,18-26,3.4-9.5,4.7-20.4,3.9-31.6-1.1-13.7-6.9-25.2-13.1-35.6-2.9-4.5-6.3-8.6-9.9-12.4,2.9,3.1,5.5,6.3,8,9.8,7.4,10.9,12.2,23,13.8,35.1.8,6.2.8,12.4,0,18.4-.9,6.2-2.6,12.2-5.2,18-3.5,7.6-8.4,14.2-14.1,19.2-6.2,5.4-13.2,9-20.9,10.5l-.2-.8c6.3-2,12.1-5.3,17.1-9.6,4.7-4.1,8.7-9.2,11.8-15,6.1-11.4,8.4-24.9,6.6-38-2.2-18.2-10.9-34.5-25.1-47.1-2.1-1.9-4.4-3.7-6.7-5.4,6.1,4.7,11.6,10.2,16.3,16.4,8.8,12.1,13.8,25,14.8,38.1,1,10.5-.9,21.4-5.6,30.6-4.9,9.7-12.3,17.3-21.5,21.9l-.4-.7c11-6.8,18.8-17.8,21.9-30.8,3-14.2,1.5-28.6-4.4-41.7-5.8-12.8-15.5-23.7-28-31.5-7.2-4.6-14.9-8.1-23-10.5-1.8-.5-3.6-1-5.5-1.4,5.7,1.4,11.3,3.4,16.8,5.9,9.3,4.3,17.5,10.1,24.5,17.5,7.1,7.5,12.4,16,15.8,25.4,3.3,10.1,4,21,2.2,30.8-2.1,10.9-7.2,20-15,26.5l-.6-.6c8.1-8.1,12.6-18.9,13.1-31.2.4-11.2-2.5-23.2-8.4-33.6-6.3-10.7-15.2-19.3-26.3-25.8-6.8-4-14.3-6.9-22.2-8.8,3.9,1,7.8,2.4,11.7,4,7.8,3.2,14.7,7.6,20.7,13,6.2,5.6,11.1,12.1,14.8,19.3,4.6,8.4,7.2,17.7,7.3,26.6.1,9.7-2.6,18.6-7.8,25.9l-.7-.5c5.5-9.9,6.9-21.5,4.3-33.6-2.5-11.3-8.5-22-16.9-30.1-15.4-14.9-36.8-22.5-58.6-20.9-3.2.2-6.3.6-9.5,1.2,8-1.2,16.3-1.9,24.8-.5,9.9,1.6,18.8,4.7,26.6,9,8.4,4.7,15.5,10.9,21.1,18.5,4.8,6.7,8.1,14.3,9.6,22,1.5,8,1,16-1.6,23.2l-.8-.2c1.5-6.4,1.6-13,.3-19.5-1.2-6.1-3.6-12-7.2-17.6-3.4-5.4-7.7-10.2-12.8-14.5-5-4.2-10.6-7.6-16.5-10.1-23.6-9.8-50.4-7.1-73.3,7.3-1.3.8-2.5,1.6-3.7,2.5.6-.4,1.1-.7,1.7-1.1,10.6-7.1,21.9-11.6,33.9-13.4,12-1.7,23.9-.6,35.5,3.3,11.3,4,21.3,11.2,28.4,20.1,7.6,9.7,11.4,20.9,10.9,32.5h-.8c-.6-9-3-16.7-7.3-23.5-11.2-17-30.3-27.1-52.3-27.7-7.6-.3-15.4.8-23,3.3-7.3,2.3-14.5,5.8-21.5,10.4-3.4,2.3-6.7,4.7-9.7,7.4,6.9-5.9,14.7-10.6,23-13.9,8.8-3.7,18.3-5.8,27.5-6,9.8-.2,19.1,1.6,27.6,5.5,16.5,8,27.4,20.9,29.7,35.6l-.8.2c-3.4-12.3-12-22.7-24-29.4-5.7-3.1-11.9-5.3-18.4-6.5-6.6-1.2-13.2-1.2-19.7-.2-13.6,2.4-24,6.4-33.5,13.1-4.9,3.6-9.2,7.5-13.2,11.9,3.1-3.2,6.5-6.2,10.1-9,8.2-6,16.7-10.3,25.3-12.7,9.1-2.6,18.5-3.1,27.7-1.6,8.2,1.4,16,4.4,22.4,8.7,7,4.7,12.3,10.9,15.3,17.9l-.8.4c-5.7-9.8-14.9-17-26.6-20.6-10.8-3.4-23.1-3.4-34.5-.3-10.5,2.8-19.9,7.8-28.1,14.8-7.9,6.7-14.4,15.1-19.5,25-1.3,2.8-2.5,5.6-3.6,8.6,3-7.7,7.2-14.8,12.3-21.1,5.7-6.7,11.6-12.1,19-17.5,8-5.7,17.1-8.9,28.6-10.1,16.8-1.7,32.9,4.3,43,15.9l-.6.6c-10.8-10.3-26-14.8-42.8-12.5-14.4,2.2-27.5,9.3-37.8,20.3-9.7,10.4-16.6,23.9-19.8,38.8-.1.8-.3,1.5-.4,2.3,1.2-6.7,3.2-13.1,6-19.2,4.5-9.7,10.9-18.1,19-25.1,10.2-8.5,20.8-13.3,32.3-14.8,12.5-1.1,23.9,1.4,32.9,7.4l-.4.7c-5.8-3-12.1-4.8-18.7-5.4-6.3-.5-12.6.2-19,2-12.5,3.6-23.8,11.5-31.8,22.2-13.3,17.2-18.1,38.2-14.1,62.3.3,1.5.6,2.9,1,4.4-2.1-9.8-2.6-19.8-1.3-29.6,1.9-13.9,7.7-27.2,16.4-37.4,9.4-11.1,21.5-18.1,35.1-20.4,7.7-1.1,14.7-.4,21.3,2.1l-.2.8c-7.6-1.8-15.3-1.6-22.8.4-7.2,1.9-14.1,5.5-20.5,10.6-8.7,7-15.6,16.4-19.7,27.1-3.9,10.2-5.4,21.7-4.4,33,.7,8,2.6,15.8,5.6,23.4-3.1-8.5-4.9-17.8-5.4-27.5-.5-15.9,4.5-30.9,14.8-44.5h0c5.5-6.6,11.8-11.6,18.8-15,7.4-3.6,15.2-5.2,23.2-4.6v.8c-15.2.5-29.5,8.5-39.2,21.9-4,5.5-7,11.4-9.1,17.7-2,6-3.1,12.3-3.3,18.8-.4,12.4,2.6,25.3,8.8,37.3,2.1,4.1,4.6,8,7.3,11.7-2-2.8-3.8-5.7-5.4-8.7-9.8-17.9-12-38.1-6.4-56.7,2.7-8.8,7.5-16.8,14.1-23.2,6.8-6.6,15-11.1,23.6-12.9l.2.8c-7.3,2-13.8,5.9-19.4,11.5-5.2,5.2-9.5,11.9-12.4,19.3-3.4,9.3-4.7,19-4,28.6.7,9.6,3.5,19,8.2,27.9,4.7,8.7,11,16.4,18.6,23.1.6.5,1.2,1,1.7,1.5-11.5-9.8-19.8-22.3-24.3-36.3-2-6.2-3-12.7-3.1-19.4,0-6.7.9-13.2,2.9-19.3,2-6.4,5-12.1,8.9-16.9,4.2-5.2,9.3-9.3,15.2-12.3Z"/>
</svg>