<svg xmlns="http://www.w3.org/2000/svg" width="33" height="33" viewBox="0 0 33 33">
  <defs>
    <style>
      .cls-1 {
        fill-rule: evenodd;
      }
    </style>
  </defs>
  <path id="Shape" class="cls-1" d="M29.058,17.233a13.832,13.832,0,0,0-8.034,3.611,14.782,14.782,0,0,0-3.773,8.208c-0.006,0-.74,2.951-0.738,2.949-0.043,0-.732-2.949-0.738-2.949A14.779,14.779,0,0,0,12,20.845a13.832,13.832,0,0,0-8.034-3.611s-2.987-.739-2.954-0.739c0.022-.024,2.951-0.739,2.954-0.739A13.835,13.835,0,0,0,12,12.144a14.778,14.778,0,0,0,3.773-8.207c0.006,0,.738-2.941.738-2.949s0.732,2.949.738,2.949a14.781,14.781,0,0,0,3.773,8.207,13.835,13.835,0,0,0,8.034,3.612s2.954,0.715,2.954.739S29.061,17.233,29.058,17.233Z"/>
</svg>
